<svg xmlns="http://www.w3.org/2000/svg" viewBox="0 0 462.51 51"><title>buttons text</title><g id="Layer_2" data-name="Layer 2"><g id="Layer_1-2" data-name="Layer 1"><path d="M85.34,21.37,84.87,20c-.58-1.8-.92-3-1-3.49l-2,.07V15h8.75v1.19a4.26,4.26,0,0,0-2.09.48A1.51,1.51,0,0,0,87.86,18a7.62,7.62,0,0,0,.36,2.09q.65,2.41,1.73,5.4c.12.36.26.79.43,1.28s.36,1.06.57,1.71q.22.75.54,1.65c.22.6.38,1,.47,1.3.48,1.3.84,2.33,1.08,3.1h.07c.48-1.64,1-3.22,1.48-4.76q1.29-4.17,2.84-8.82,1.62-4.86,1.95-6h1.15q.43,1.47,1.48,4.62c.69,2.1,1.2,3.62,1.51,4.56.72,2.06,1.21,3.52,1.47,4.39.2.65.51,1.62.94,2.91s.86,2.58,1.15,3.57h.11q.87-2.8,1.48-4.65,1.83-5.22,3-9c.27-.88.51-1.63.72-2.23a23.12,23.12,0,0,1,1.12-2.63l-2.88.11V15h7.31v1.19a4.76,4.76,0,0,0-2,.54,3.27,3.27,0,0,0-1.19,1.42,27.24,27.24,0,0,0-1.32,3.36L111.62,27Q108.74,35.7,107,40.52h-1.08L99.16,21.26,92.83,40.52h-1Z"/><path d="M118.46,39a2.34,2.34,0,0,0,1.44-.41,3.24,3.24,0,0,0,.88-1.08,16.67,16.67,0,0,0,.81-2l.36-1,7.42-20.2h.86l8,20.49a16.68,16.68,0,0,1,.68,2.1,6.43,6.43,0,0,1,.25,1.86l2.45-.15v1.59H133.4V39c1.41,0,2.12-.6,2.12-1.73a5.24,5.24,0,0,0-.36-1.69l-1.26-3.38-9.36.21c-.36,1-.78,2.27-1.26,3.85a26.23,26.23,0,0,1-.9,2.49l2.81-.15v1.59h-6.73Zm14.94-8.14L130.84,24l-1.62-4.43h-.07l-1.51,4.07-2,5.47-.61,1.76Z"/><path d="M150.71,39a2.26,2.26,0,0,0,2-.86,5.15,5.15,0,0,0,.45-2.45V34.54l0-18.25-3.71,0a3.49,3.49,0,0,0-3.19,1.49,9.11,9.11,0,0,0-1,4.73H144l.21-7.59h21l.22,7.59h-1.37a13.51,13.51,0,0,0-.45-3.61,3.61,3.61,0,0,0-1.4-2,5.1,5.1,0,0,0-2.83-.67h-3.06l0,19.62a28.4,28.4,0,0,1-.1,2.85l3-.15v1.59h-8.46Z"/><path d="M176.72,39a11.77,11.77,0,0,1-4.35-4.61A13.39,13.39,0,0,1,170.8,28a15.78,15.78,0,0,1,1.42-6.62,12.11,12.11,0,0,1,4.25-5,11.79,11.79,0,0,1,6.82-1.93,12.88,12.88,0,0,1,7.28,2.2l-.18-1.95h1.94V23H191a8.11,8.11,0,0,0-2.35-5.24,7.19,7.19,0,0,0-5.13-1.89,8.16,8.16,0,0,0-4.67,1.42,9.75,9.75,0,0,0-3.33,4,14.34,14.34,0,0,0-1.22,6.08,13.09,13.09,0,0,0,1.3,5.93,10.08,10.08,0,0,0,3.49,4.06A8.52,8.52,0,0,0,184,38.86a10.55,10.55,0,0,0,4.64-1.08,9.66,9.66,0,0,0,3.67-3.06l.94.76a11.67,11.67,0,0,1-4.79,4.08,13.49,13.49,0,0,1-5.4,1.17A11.93,11.93,0,0,1,176.72,39Z"/><path d="M199.17,39a2.57,2.57,0,0,0,1.8-.58,2,2,0,0,0,.61-1.27c0-.5.07-1.35.07-2.58V19c0-1,0-1.87.11-2.59l-2.59.14V15h8.1v1.19a2.57,2.57,0,0,0-1.8.57,2.06,2.06,0,0,0-.61,1.28c-.05.49-.07,1.35-.07,2.57v6h12.88V19c0-1,0-1.87.11-2.59l-2.59.14V15h8.1v1.19a2.57,2.57,0,0,0-1.8.57,2,2,0,0,0-.61,1.28c0,.49-.07,1.35-.07,2.57v15.3a27.73,27.73,0,0,1-.11,2.85l2.59-.15v1.59h-8.1V39a2.57,2.57,0,0,0,1.8-.58,2,2,0,0,0,.61-1.27c.05-.5.07-1.35.07-2.58V28l-12.88.14v7.74a27.73,27.73,0,0,1-.11,2.85l2.59-.15v1.59h-8.1Z"/><path d="M247.77,38.83a11.58,11.58,0,0,1-4.25-4.92,15.17,15.17,0,0,1-1.37-6.35,14.47,14.47,0,0,1,1.43-6.23,12.37,12.37,0,0,1,4.24-5,11.8,11.8,0,0,1,6.86-2,12.1,12.1,0,0,1,11.38,6.95,14.34,14.34,0,0,1,1.44,6.23,14.65,14.65,0,0,1-1.42,6.21,12.44,12.44,0,0,1-4.25,5,11.73,11.73,0,0,1-6.86,2A12.78,12.78,0,0,1,247.77,38.83Zm12.08-1.17a10,10,0,0,0,3-4.13,14,14,0,0,0,1-5.29,16.25,16.25,0,0,0-1.12-5.92,11.45,11.45,0,0,0-3.24-4.68,7.42,7.42,0,0,0-5-1.82,7.55,7.55,0,0,0-4.82,1.6,9.86,9.86,0,0,0-3,4.16,14.08,14.08,0,0,0-1,5.33,16.71,16.71,0,0,0,1,5.71,11.67,11.67,0,0,0,3.17,4.75,8,8,0,0,0,10,.29Z"/><path d="M279.47,39.38a7.43,7.43,0,0,1-3.17-4.14,23.19,23.19,0,0,1-.95-7.36V20.57c0-1.53,0-2.92.14-4.17l-2.59.11V15H281v1.19c-1,0-1.73.27-2,.82a4.33,4.33,0,0,0-.44,2v9.07a23.16,23.16,0,0,0,.56,5.42,7.08,7.08,0,0,0,2.2,3.74A6.78,6.78,0,0,0,286,38.68a6.37,6.37,0,0,0,5.57-2.57,12.34,12.34,0,0,0,1.89-7L293.53,19c0-1,0-1.87.1-2.59l-2.55.14V15h6.69v1.19a2.62,2.62,0,0,0-1.83.57,2,2,0,0,0-.61,1.28c-.05.49-.08,1.35-.08,2.57l-.07,8.36a14.8,14.8,0,0,1-2.32,8.51c-1.53,2.2-4,3.29-7.36,3.29A11.51,11.51,0,0,1,279.47,39.38Z"/><path d="M303.71,39a2.57,2.57,0,0,0,1.8-.58,2,2,0,0,0,.61-1.27c.05-.5.08-1.35.08-2.58V19a24.14,24.14,0,0,1,.11-2.59l-2.6.14V15c2.5-.05,4.38-.07,5.66-.07s2,0,2.59,0q5.07.08,7.43,1.71a5.42,5.42,0,0,1,2.36,4.74,7,7,0,0,1-1.48,4.46c-1,1.32-2.76,2.23-5.25,2.74a6.14,6.14,0,0,1,1.11,1.11c.34.43.8,1.11,1.37,2L320,35.55c.53.84,1,1.48,1.31,1.93a4.36,4.36,0,0,0,1.26,1.08,3.74,3.74,0,0,0,1.82.41v1.19h-4.53a10.46,10.46,0,0,1-1.64-1.71c-.45-.59-1-1.35-1.57-2.29l-2.41-3.85-.47-.76c-.38-.64-.72-1.17-1-1.58a6.58,6.58,0,0,0-.93-1.08c-.22,0-.56,0-1,0-.65,0-1.13,0-1.44,0v7a27.73,27.73,0,0,1-.11,2.85l2.59-.15v1.59h-8.1Zm14.55-17.21a5.11,5.11,0,0,0-1.59-4.1,7.29,7.29,0,0,0-4.86-1.37,2.63,2.63,0,0,0-1.8.5A1.91,1.91,0,0,0,309.4,18c0,.48-.07,1.33-.07,2.55v6.92c.72,0,1.25.07,1.58.07Q318.26,27.56,318.26,21.76Z"/><path d="M343,21.37a20.6,20.6,0,0,1-1.55-4.9l-2,.07V15h8.36v1.19l0,0a3.13,3.13,0,0,0-1.75.52,1.6,1.6,0,0,0-.55,1.32,5.54,5.54,0,0,0,.5,2.05l.94,2.3c.24.6.6,1.52,1.09,2.74s1,2.34,1.39,3.35l.94,2.19c.93,2.14,1.59,3.72,2,4.76h.07l1.33-3.86.47-1.29,3.17-8.89.82-2.31a28,28,0,0,1,1.05-2.66l-2.77.14V15h7.3v1.19a3.8,3.8,0,0,0-2.43.82,6.74,6.74,0,0,0-1.53,2.7l-7.59,20.85h-1Z"/><path d="M367.94,39a2.57,2.57,0,0,0,1.8-.58,2,2,0,0,0,.61-1.27c0-.5.07-1.35.07-2.58V19c0-1,0-1.87.11-2.59l-2.59.14V15H376v1.19a2.57,2.57,0,0,0-1.8.57,2.07,2.07,0,0,0-.62,1.28c0,.49-.07,1.35-.07,2.57v15.3a25.1,25.1,0,0,1-.11,2.85l2.6-.15v1.59h-8.1Z"/><path d="M382.88,39a2.59,2.59,0,0,0,1.8-.58,2,2,0,0,0,.61-1.27c0-.5.07-1.35.07-2.58V19c0-1,0-1.87.11-2.59l-2.59.14V15l8.49,0q6.76,0,10.73,3.17t4,9.5a12.86,12.86,0,0,1-1.58,6.27,11.63,11.63,0,0,1-4.68,4.59,15.23,15.23,0,0,1-7.46,1.71h-9.46Zm14.72-1.66a10,10,0,0,0,3.64-4.06,12.84,12.84,0,0,0,1.29-5.8c0-3.5-1-6.25-2.88-8.23s-4.81-3-8.67-3a2.56,2.56,0,0,0-1.8.51,1.9,1.9,0,0,0-.62,1.24c-.05.49-.07,1.35-.07,2.57V35.91a24.64,24.64,0,0,1-.11,2.81c.84.05,2.13.07,3.86.07A9.79,9.79,0,0,0,397.6,37.31Z"/><path d="M412.22,39a2.59,2.59,0,0,0,1.8-.58,2,2,0,0,0,.61-1.27c0-.5.07-1.35.07-2.58V19c0-1,0-1.87.11-2.59l-2.59.14V15h17.31l.18,6.3h-1.19c0-2-.42-3.31-1.27-4a5.15,5.15,0,0,0-3.59-1l-3.09.07a3.15,3.15,0,0,0-1.87.49A1.92,1.92,0,0,0,418,18a15.28,15.28,0,0,0-.15,2.53v5.76l6.77,0-.25-3.1h1.58v7.56h-1.19a5,5,0,0,0-.32-2,1.72,1.72,0,0,0-1-.94,6,6,0,0,0-1.85-.23l-1.12,0-2.63.1V36a27.25,27.25,0,0,1-.11,2.81l6.88-.11a5.59,5.59,0,0,0,3.85-1.28c.89-.83,1.33-2.26,1.33-4.3H431l-.22,7H412.22Z"/><path d="M442.78,38.83a11.58,11.58,0,0,1-4.25-4.92,15.17,15.17,0,0,1-1.37-6.35,14.47,14.47,0,0,1,1.43-6.23,12.37,12.37,0,0,1,4.24-5,11.8,11.8,0,0,1,6.86-2,12.1,12.1,0,0,1,11.38,6.95,14.34,14.34,0,0,1,1.44,6.23,14.65,14.65,0,0,1-1.42,6.21,12.44,12.44,0,0,1-4.25,5,11.73,11.73,0,0,1-6.86,2A12.78,12.78,0,0,1,442.78,38.83Zm12.08-1.17a10,10,0,0,0,3-4.13,13.77,13.77,0,0,0,1-5.29,16,16,0,0,0-1.12-5.92,11.45,11.45,0,0,0-3.24-4.68,7.4,7.4,0,0,0-5-1.82,7.55,7.55,0,0,0-4.82,1.6,10,10,0,0,0-3,4.16,14.08,14.08,0,0,0-1,5.33,16.49,16.49,0,0,0,1.05,5.71,11.55,11.55,0,0,0,3.16,4.75,8,8,0,0,0,10,.29Z"/><path d="M25.5,51A25.5,25.5,0,1,1,51,25.5,25.53,25.53,0,0,1,25.5,51Zm0-50A24.5,24.5,0,1,0,50,25.5,24.53,24.53,0,0,0,25.5,1Z"/><polygon points="33.23 25.5 20.66 18.24 20.66 32.76 33.23 25.5"/></g></g></svg>