<svg xmlns="http://www.w3.org/2000/svg" viewBox="0 0 18.11 17.96"><defs><style>.cls-1{fill:#6d6d6d;}</style></defs><title>Asset 4</title><g id="Layer_2" data-name="Layer 2"><g id="Layer_1-2" data-name="Layer 1"><path class="cls-1" d="M18.11,3.47a1.9,1.9,0,0,0-2-1.91H14.5V1a.59.59,0,0,0-.05-.23A1,1,0,0,0,13.53,0h-1a1.05,1.05,0,0,0-.67.27,1,1,0,0,0-.3.75v.54H6.61V1A.64.64,0,0,0,6.56.74,1,1,0,0,0,5.64,0h-1a1,1,0,0,0-.67.27,1,1,0,0,0-.3.75v.54c-.56,0-1.13,0-1.7,0A1.91,1.91,0,0,0,0,3.13,3.73,3.73,0,0,0,0,3.7V16a2,2,0,0,0,.53,1.39A2,2,0,0,0,2,18H16.13a2,2,0,0,0,1.37-.51A2,2,0,0,0,18.11,16V3.47ZM16.8,3l0,0ZM13,1.16h.35v1h0v.6s0,.07,0,.1v.28h-.69V1.24s0-.06,0-.09Zm-7.89,0h.34v2H4.77v-2ZM1.44,2.87l0,0Zm0,0h0l.16-.08.2,0a6.77,6.77,0,0,1,.78,0h1v.57a.29.29,0,0,0,0,.09.76.76,0,0,0,0,.15l0,0a.61.61,0,0,0,.07.17.45.45,0,0,0,.06.12.94.94,0,0,0,.51.38,1.77,1.77,0,0,0,.52,0h.88a.76.76,0,0,0,.21,0,.8.8,0,0,0,.16-.08l.07,0a1,1,0,0,0,.28-.26s0,0,0,0a.75.75,0,0,0,.06-.13.78.78,0,0,0,0-.14,1.29,1.29,0,0,0,0-.19s0,0,0-.08V2.71h4.9v.57s0,0,0,.05a1.11,1.11,0,0,0,0,.19s0,0,0,0a.5.5,0,0,0,0,.13,1.29,1.29,0,0,0,.09.16,1,1,0,0,0,.14.15l.06.06a1.08,1.08,0,0,0,.3.16,1.8,1.8,0,0,0,.52,0h.88a.83.83,0,0,0,.22,0A.8.8,0,0,0,14,4.14l0,0a1,1,0,0,0,.3-.27s0,0,0,0a.18.18,0,0,0,0-.1.71.71,0,0,0,.08-.18.68.68,0,0,0,0-.14.5.5,0,0,0,0-.12V2.71h1.81l.19,0,.15.08h0a.27.27,0,0,1,.08.07.27.27,0,0,1,.07.08h0a1.09,1.09,0,0,1,.08.15c0,.07,0,.14.06.2V5.74H1.16V3.48s0-.07,0-.1a1.6,1.6,0,0,1,.05-.21s.05-.1.08-.14V3l.07-.08ZM1.33,16.52v0A0,0,0,0,1,1.33,16.52Zm15.35.11,0,0A0,0,0,0,1,16.68,16.63Zm0,0h0a.8.8,0,0,1-.16.08.66.66,0,0,1-.2.06H1.83a.83.83,0,0,1-.21-.06l-.14-.07h0l-.08-.08a.46.46,0,0,0-.07-.07h0a1.29,1.29,0,0,1-.09-.16c0-.06,0-.13-.05-.19s0-.27,0-.41V6.89H17V16a.28.28,0,0,1,0,.09,1.42,1.42,0,0,1-.05.22s0,.09-.08.14h0l-.07.08Z"/></g></g></svg>