<svg id="Layer_1" data-name="Layer 1" xmlns="http://www.w3.org/2000/svg" viewBox="0 0 325 218"><title>Dots</title><path d="M304.47,29.81a5,5,0,1,0,5-5,5,5,0,0,0-5,5"/><path d="M304.47,59.33a5,5,0,1,0,5-5,5,5,0,0,0-5,5"/><path d="M304.47,88.85a5,5,0,1,0,5-5,5,5,0,0,0-5,5"/><path d="M304.47,118.38a5,5,0,1,0,5-5,5,5,0,0,0-5,5"/><path d="M304.47,147.9a5,5,0,1,0,5-5.05,5,5,0,0,0-5,5.05"/><path d="M304.47,177.42a5,5,0,1,0,5-5,5,5,0,0,0-5,5"/><path d="M304.47,207a5,5,0,1,0,5-5,5,5,0,0,0-5,5"/><path d="M274.94,15.05A5.05,5.05,0,1,0,280,10a5,5,0,0,0-5.05,5.05"/><path d="M274.94,44.57a5.05,5.05,0,1,0,5.05-5,5,5,0,0,0-5.05,5"/><path d="M274.94,74.09a5.05,5.05,0,1,0,5.05-5,5,5,0,0,0-5.05,5"/><path d="M274.94,103.62A5.05,5.05,0,1,0,280,98.57a5.06,5.06,0,0,0-5.05,5.05"/><path d="M274.94,133.14a5.05,5.05,0,1,0,5.05-5,5,5,0,0,0-5.05,5"/><path d="M274.94,162.66a5.05,5.05,0,1,0,5.05-5,5,5,0,0,0-5.05,5"/><path d="M274.94,192.18a5.05,5.05,0,1,0,5.05-5,5,5,0,0,0-5.05,5"/><path d="M245.42,29.81a5.05,5.05,0,1,0,5.05-5,5,5,0,0,0-5.05,5"/><path d="M245.42,59.33c0,4,4.58,6.87,8.75,3.7,3.17-4.16.27-8.75-3.7-8.75a5,5,0,0,0-5.05,5"/><path d="M245.42,89c0,4,4.58,6.87,8.75,3.7,3.17-4.16.27-8.75-3.7-8.75a5,5,0,0,0-5.05,5"/><path d="M245.42,118.38a5.05,5.05,0,1,0,5.05-5,5,5,0,0,0-5.05,5"/><path d="M245.42,147.9c0,4,4.58,6.87,8.75,3.7,3.17-4.16.27-8.75-3.7-8.75a5,5,0,0,0-5.05,5.05"/><path d="M245.42,177.55c0,4,4.58,6.87,8.75,3.7,3.17-4.16.27-8.75-3.7-8.75a5,5,0,0,0-5.05,5.05"/><path d="M245.42,207a5.05,5.05,0,1,0,5.05-5,5,5,0,0,0-5.05,5"/><path d="M215.9,15.05A5,5,0,1,0,221,10a5,5,0,0,0-5,5.05"/><path d="M215.9,44.57a5,5,0,1,0,5-5,5,5,0,0,0-5,5"/><path d="M215.9,74.09a5.05,5.05,0,1,0,5-5,5,5,0,0,0-5,5"/><path d="M215.9,103.62a5,5,0,1,0,5-5.05,5.06,5.06,0,0,0-5,5.05"/><path d="M215.9,133.14a5,5,0,1,0,5-5,5,5,0,0,0-5,5"/><path d="M215.9,162.66a5,5,0,1,0,5-5,5,5,0,0,0-5,5"/><path d="M215.9,192.18a5.05,5.05,0,1,0,5-5,5,5,0,0,0-5,5"/><path d="M186.38,29.81a5,5,0,1,0,5.05-5,5,5,0,0,0-5.05,5"/><path d="M186.38,59.33a5,5,0,1,0,5.05-5,5,5,0,0,0-5.05,5"/><path d="M186.38,88.85a5,5,0,1,0,5.05-5,5,5,0,0,0-5.05,5"/><path d="M186.38,118.38a5,5,0,1,0,5.05-5,5,5,0,0,0-5.05,5"/><path d="M186.38,147.9a5,5,0,1,0,5.05-5.05,5,5,0,0,0-5.05,5.05"/><path d="M186.38,177.42a5,5,0,1,0,5.05-5,5,5,0,0,0-5.05,5"/><path d="M186.38,207a5,5,0,1,0,5.05-5,5,5,0,0,0-5.05,5"/><path d="M156.85,15.05A5,5,0,1,0,161.9,10a5,5,0,0,0-5.05,5.05"/><path d="M156.85,44.57a5,5,0,1,0,5.05-5,5,5,0,0,0-5.05,5"/><path d="M156.85,74.09a5.05,5.05,0,1,0,5.05-5,5,5,0,0,0-5.05,5"/><path d="M156.85,103.62a5,5,0,1,0,5.05-5.05,5.06,5.06,0,0,0-5.05,5.05"/><path d="M156.85,133.14a5,5,0,1,0,5.05-5,5,5,0,0,0-5.05,5"/><path d="M156.85,162.66a5,5,0,1,0,5.05-5,5,5,0,0,0-5.05,5"/><path d="M156.85,192.18a5.05,5.05,0,1,0,5.05-5,5,5,0,0,0-5.05,5"/><path d="M127.33,29.81a5,5,0,1,0,5-5,5,5,0,0,0-5,5"/><path d="M127.33,59.33a5,5,0,1,0,5-5,5,5,0,0,0-5,5"/><path d="M127.33,88.85a5.05,5.05,0,1,0,5-5,5,5,0,0,0-5,5"/><path d="M127.33,118.38a5,5,0,1,0,5-5,5,5,0,0,0-5,5"/><path d="M127.33,147.9a5,5,0,1,0,5-5.05,5,5,0,0,0-5,5.05"/><path d="M127.33,177.42a5.05,5.05,0,1,0,5-5,5,5,0,0,0-5,5"/><path d="M127.33,207a5,5,0,1,0,5-5,5,5,0,0,0-5,5"/><path d="M99.23,15.05a5,5,0,1,0,5-5.05,5,5,0,0,0-5,5.05"/><path d="M99.23,44.57a5,5,0,1,0,5-5,5,5,0,0,0-5,5"/><path d="M99.23,74.09a5.05,5.05,0,1,0,5-5,5,5,0,0,0-5,5"/><path d="M99.23,103.62a5,5,0,1,0,5-5.05,5.06,5.06,0,0,0-5,5.05"/><path d="M99.23,133.14a5,5,0,1,0,5-5,5,5,0,0,0-5,5"/><path d="M99.23,162.66a5,5,0,1,0,5-5,5,5,0,0,0-5,5"/><path d="M99.23,192.18a5.05,5.05,0,1,0,5-5,5,5,0,0,0-5,5"/><path d="M69.71,29.81a5,5,0,1,0,5-5,5,5,0,0,0-5,5"/><path d="M69.71,59.33a5,5,0,1,0,5-5,5,5,0,0,0-5,5"/><path d="M69.71,88.85a5,5,0,1,0,5-5,5,5,0,0,0-5,5"/><path d="M69.71,118.38a5,5,0,1,0,5-5,5,5,0,0,0-5,5"/><path d="M69.71,147.9a5,5,0,1,0,5-5.05,5,5,0,0,0-5,5.05"/><path d="M69.71,177.42a5,5,0,1,0,5-5,5,5,0,0,0-5,5"/><path d="M69.71,207a5,5,0,1,0,5-5,5,5,0,0,0-5,5"/><path d="M40.18,15.05a5.05,5.05,0,1,0,5-5.05,5,5,0,0,0-5,5.05"/><path d="M40.18,44.57a5.05,5.05,0,1,0,5-5,5,5,0,0,0-5,5"/><path d="M40.18,74.09a5.05,5.05,0,1,0,5-5,5,5,0,0,0-5,5"/><path d="M40.18,103.62a5.05,5.05,0,1,0,5-5.05,5.06,5.06,0,0,0-5,5.05"/><path d="M40.18,133.14a5.05,5.05,0,1,0,5-5,5,5,0,0,0-5,5"/><path d="M40.18,162.66a5.05,5.05,0,1,0,5-5,5,5,0,0,0-5,5"/><path d="M40.18,192.18a5.05,5.05,0,1,0,5-5,5,5,0,0,0-5,5"/><path d="M10.66,29.81a5.05,5.05,0,1,0,5.05-5,5,5,0,0,0-5.05,5"/><path d="M10.66,59.33a5.05,5.05,0,1,0,5.05-5,5,5,0,0,0-5.05,5"/><path d="M10.66,88.85a5.05,5.05,0,1,0,5.05-5,5,5,0,0,0-5.05,5"/><path d="M10.66,118.38a5.05,5.05,0,1,0,5.05-5,5,5,0,0,0-5.05,5"/><path d="M10.66,147.9a5.05,5.05,0,1,0,5.05-5.05,5,5,0,0,0-5.05,5.05"/><path d="M10.66,177.42a5.05,5.05,0,1,0,5.05-5,5,5,0,0,0-5.05,5"/><path d="M10.66,207a5.05,5.05,0,1,0,5.05-5,5,5,0,0,0-5.05,5"/></svg>