<svg xmlns="http://www.w3.org/2000/svg" viewBox="0 0 185.49 53.96"><defs><style>.cls-1{fill:#fff;}</style></defs><title>Expanded</title><g id="Layer_2" data-name="Layer 2"><g id="Layer_1-2" data-name="Layer 1"><path class="cls-1" d="M6.24,34.84.3,49.45H2.61L4.44,45h5l1.28,4.43h2.35L7.91,34.57ZM5.08,43.29,7,37.6l1.8,5.69Z"/><path class="cls-1" d="M19.81,41.37V40.14H17.72v9.32h2.09V45.05a3.46,3.46,0,0,1,3.45-3.14h0V40a4.58,4.58,0,0,0-.55,0A3.34,3.34,0,0,0,19.81,41.37Z"/><path class="cls-1" d="M46.68,41.37V40.14H44.59v9.32h2.09V45.05a3.46,3.46,0,0,1,3.45-3.14h0V40a4.43,4.43,0,0,0-.55,0A3.34,3.34,0,0,0,46.68,41.37Z"/><path class="cls-1" d="M181.68,42.45V40.8h-.82v9.11h.82V44.72c0-1.14.13-1.56.44-1.9a4.39,4.39,0,0,1,3.37-1.26V40.7a6.09,6.09,0,0,0-.88.06A4.3,4.3,0,0,0,181.68,42.45Z"/><path class="cls-1" d="M178.76,42.8c0-1.33-.95-2.36-2.7-2.36-2.89,0-4.87,2.7-4.87,5.44a4,4,0,0,0,4.22,4.36,5,5,0,0,0,3.12-1.1V48.05h-.06a3.86,3.86,0,0,1-3.05,1.43A3.31,3.31,0,0,1,172,46.42a34.21,34.21,0,0,0,3.5-.63C177.93,45.2,178.76,44.12,178.76,42.8Zm-6.79,3v-.23h0c0-1.94,1.66-4.41,4-4.41,1.24,0,2,.65,2,1.67s-.71,1.77-2.3,2.21A25.42,25.42,0,0,1,172,45.82Z"/><path class="cls-1" d="M167.94,37.55l-.8.21v3h-1.82v.74h1.83v5.27c0,2.06.38,2.74,1.33,3.2l1.08-.13v-.11c-1.41-.76-1.62-1.24-1.62-3V41.55h3V40.8h-3Z"/><path class="cls-1" d="M163,45.36c-.72-.36-1.81-.67-2.47-1a1.57,1.57,0,0,1-1.09-1.56c0-.84.61-1.6,2-1.6A3.64,3.64,0,0,1,164,42.3l.34-.89a5,5,0,0,0-2.91-.93,2.52,2.52,0,0,0-2.8,2.45,2.15,2.15,0,0,0,1.52,2.19c.84.4,1.86.63,2.74,1.1a1.62,1.62,0,0,1,.91,1.45c0,1.12-.8,1.81-2.38,1.81a3.82,3.82,0,0,1-2.91-1.18l-.08,1a4.65,4.65,0,0,0,2.93.91c2.07,0,3.27-1,3.27-2.57A2.3,2.3,0,0,0,163,45.36Z"/><path class="cls-1" d="M157.2,42.8c0-1.33-.95-2.36-2.7-2.36-2.89,0-4.87,2.7-4.87,5.44a4,4,0,0,0,4.22,4.36,5,5,0,0,0,3.12-1.1V48.05h-.06a3.84,3.84,0,0,1-3,1.43,3.31,3.31,0,0,1-3.41-3.06,34.72,34.72,0,0,0,3.5-.63C156.37,45.2,157.2,44.12,157.2,42.8Zm-6.79,3v-.23h0c0-1.94,1.66-4.41,4-4.41,1.24,0,2,.65,2,1.67s-.71,1.77-2.3,2.21A25.42,25.42,0,0,1,150.41,45.82Z"/><path class="cls-1" d="M145,40.6a4.39,4.39,0,0,0-3.48,2V35.07l-.82.19V49.91h.82V44.77a2.56,2.56,0,0,1,.55-1.83,3.6,3.6,0,0,1,2.84-1.56c1.52,0,2.26.76,2.26,2.53v6H148V43.66C148,41.6,147,40.6,145,40.6Z"/><path class="cls-1" d="M135.94,49.44c-2.49,0-3.73-1.73-3.73-3.94,0-2.51,1.43-4.22,4-4.22a4.13,4.13,0,0,1,2.63.86l.29-.86a5.22,5.22,0,0,0-2.91-.8c-3.06,0-4.83,2.19-4.83,5s1.77,4.74,4.59,4.74a5.53,5.53,0,0,0,3.07-.93l.17-1.2h-.06A4.18,4.18,0,0,1,135.94,49.44Z"/><path class="cls-1" d="M126.8,40.6a4.39,4.39,0,0,0-3.48,2V40.8h-.82v9.11h.83V44.77a2.62,2.62,0,0,1,.55-1.83,3.6,3.6,0,0,1,2.83-1.56c1.52,0,2.26.76,2.26,2.53v6h.82V43.66A2.73,2.73,0,0,0,126.8,40.6Z"/><path class="cls-1" d="M117.69,40.59a4.58,4.58,0,0,0-2.93,1v1h.06a4,4,0,0,1,2.83-1.14,1.91,1.91,0,0,1,2.13,2.11v.91a13.15,13.15,0,0,0-4.36,1.05A2.64,2.64,0,0,0,113.77,48a2.14,2.14,0,0,0,2.41,2.13,5.14,5.14,0,0,0,3.6-1.66v1.66l.78-.25V43.5A2.57,2.57,0,0,0,117.69,40.59Zm2.1,6.89a4.42,4.42,0,0,1-3.39,1.86c-1.18,0-1.73-.65-1.73-1.52a2.13,2.13,0,0,1,1.58-2,12.36,12.36,0,0,1,3.54-.8Z"/><polygon class="cls-1" points="104.95 48.73 98.95 35.22 97.72 35.22 97.72 49.91 98.53 49.91 98.53 36.29 104.58 49.91 105.29 49.91 111.53 36.27 111.53 49.91 112.35 49.91 112.35 35.22 111.13 35.22 104.95 48.73"/><path class="cls-1" d="M88.34,46.65l-2.1-6.52H84l3.27,9.3a17.55,17.55,0,0,1-2.85,4.47V54h2.49a23.26,23.26,0,0,0,2.21-4.26l4.07-9.57H91Z"/><path class="cls-1" d="M75.34,35.43a1.27,1.27,0,0,0,0,2.54,1.27,1.27,0,0,0,0-2.54Z"/><rect class="cls-1" x="74.3" y="39.9" width="2.09" height="9.55"/><path class="cls-1" d="M61.16,42.07c0,4.6,3,7.63,7.29,7.63a8.09,8.09,0,0,0,4.38-1.25V45.61a5.34,5.34,0,0,1-4.19,1.94c-3.06,0-5.18-2.21-5.18-5.44a5.21,5.21,0,0,1,5.23-5.46,6.12,6.12,0,0,1,4.14,1.46V35.59a8,8,0,0,0-4.29-1.07A7.39,7.39,0,0,0,61.16,42.07Z"/><path class="cls-1" d="M53.6,37l-2.09.4v9.19c0,1.94.44,2.68,1.31,3.1h2.41v-.15c-1.22-.67-1.63-1.46-1.63-3.21V42h2.66v-1.9H53.6Z"/><path class="cls-1" d="M80.49,37l-2.09.4v9.19c0,1.94.44,2.68,1.31,3.1h2.41v-.15c-1.22-.67-1.63-1.46-1.63-3.21V42h2.66v-1.9H80.49Z"/><path class="cls-1" d="M38.65,39.81a4.59,4.59,0,0,0-4.79,4.91c0,3.18,2,5.06,4.79,5.06,2.57,0,4.82-1.66,4.82-5.06A4.57,4.57,0,0,0,38.65,39.81Zm0,8.23C37,48,36,46.67,36,44.71s1-3.2,2.63-3.2,2.64,1.26,2.64,3.2C41.29,46.87,40.26,48,38.65,48Z"/><path class="cls-1" d="M28.23,39.88h-4V54l2.09-.46V49.33a3.18,3.18,0,0,0,1.67.44,4.7,4.7,0,0,0,5-5.06A4.57,4.57,0,0,0,28.23,39.88Zm-.5,8.3a2,2,0,0,1-1.41-.46V41.53h1.45a3,3,0,0,1,3.06,3.26C30.83,46.88,29.63,48.18,27.73,48.18Z"/><path class="cls-1" d="M15,35.43A1.27,1.27,0,0,0,15,38a1.27,1.27,0,0,0,0-2.54Z"/><rect class="cls-1" x="13.95" y="39.9" width="2.09" height="9.55"/><path class="cls-1" d="M143.46,20.21q.3.6.9,1.65c.4.7.79,1.41,1.16,2.14s.93,1.7,1.43,2.63h8.14l-4.31-8.33a10,10,0,0,0,2.87-3.38,9.34,9.34,0,0,0,1.07-4.49,9.11,9.11,0,0,0-.83-3.88,10.66,10.66,0,0,0-2.21-3.19,10.76,10.76,0,0,0-3.23-2.18,9.6,9.6,0,0,0-3.9-.81H136V26.63h7.5Zm1.33-6.13a4,4,0,0,0,1.05-.15,2.62,2.62,0,0,0,1-.54,3.09,3.09,0,0,0,.79-1.05,4,4,0,0,0,.31-1.68,4.21,4.21,0,0,0-.24-1.5,2.78,2.78,0,0,0-.66-1.05l2.1-2.06a5.49,5.49,0,0,0-1.93-1.33,7.57,7.57,0,0,0-3.13-.58h-4.39V23.3l-3,2.59V1.13h7.84a8.89,8.89,0,0,1,3.62.75,9.82,9.82,0,0,1,3,2.06l-2,2.1a10.9,10.9,0,0,1,1.37,2.18,5.75,5.75,0,0,1,.51,2.48,6.37,6.37,0,0,1-1.52,4.24,6.13,6.13,0,0,1-1.63,1.37,7,7,0,0,1-1.95.77l3.64,6.53-2.21,2.29-3.49-6.34,2-2.48h-6.08l2.85-3Zm-1.32-.76V7.88h1.31a2.73,2.73,0,0,1,.81.13,2,2,0,0,1,.79.47,2.64,2.64,0,0,1,.6.86,3.18,3.18,0,0,1,.24,1.32A3,3,0,0,1,147,12a2.61,2.61,0,0,1-.6.83,1.86,1.86,0,0,1-.79.43,3,3,0,0,1-.81.11Z"/><path class="cls-1" d="M123.55,8.7l2-2.21a9.35,9.35,0,0,0-3.06-2,10,10,0,0,0-3.77-.71,9.57,9.57,0,0,0-3.81.77,9.94,9.94,0,0,0-3.1,2.08A9.79,9.79,0,0,0,109,13.51a9.76,9.76,0,0,0,.79,4A9,9,0,0,0,112,20.6c.15-.12.33-.29.54-.49l.66-.6.62-.56c.19-.17.33-.31.43-.41a6.92,6.92,0,0,0,2,1.24,6.5,6.5,0,0,0,2.44.45,6.68,6.68,0,0,0,2.63-.53,6.81,6.81,0,0,0,2.16-1.44,6.54,6.54,0,0,0,1.44-2.16,6.68,6.68,0,0,0,.53-2.63,6.59,6.59,0,0,0-.53-2.59A7.45,7.45,0,0,0,123.55,8.7Zm.68,7.1a6,6,0,0,1-1.29,1.91A6.08,6.08,0,0,1,121,19a6,6,0,0,1-4.66,0,6.06,6.06,0,0,1-3.2-3.2,6,6,0,0,1,1.29-6.57,6.08,6.08,0,0,1,1.91-1.29,6,6,0,0,1,4.66,0,6,6,0,0,1,1.91,1.29,6.08,6.08,0,0,1,1.29,1.91,6,6,0,0,1,0,4.66Z"/><path class="cls-1" d="M18.76,10.43a9.11,9.11,0,0,0-.83-3.88,10.66,10.66,0,0,0-2.21-3.19,10.76,10.76,0,0,0-3.23-2.18A9.6,9.6,0,0,0,8.59.37H0V26.63H7.5v-6A16.25,16.25,0,0,0,12,20a9.59,9.59,0,0,0,3.55-1.84A8.56,8.56,0,0,0,17.92,15,11.4,11.4,0,0,0,18.76,10.43ZM14.61,8.22a5.75,5.75,0,0,1,.51,2.48,6.88,6.88,0,0,1-.43,2.46,6,6,0,0,1-1.29,2,6.05,6.05,0,0,1-2.18,1.39,9,9,0,0,1-3.08.49H3.9l2.85-3H8.81a4,4,0,0,0,1-.15,2.62,2.62,0,0,0,1-.54,3.09,3.09,0,0,0,.79-1.05A3.85,3.85,0,0,0,12,10.66a4.21,4.21,0,0,0-.24-1.5,2.78,2.78,0,0,0-.66-1.05l2.1-2.06a5.49,5.49,0,0,0-1.93-1.33,7.57,7.57,0,0,0-3.13-.58H3.75V23.5l-3,2.4V1.13H8.59a8.89,8.89,0,0,1,3.62.75,9.82,9.82,0,0,1,3,2.06l-2,2.1A10.9,10.9,0,0,1,14.61,8.22ZM7.5,13.32V7.88H8.81A2.73,2.73,0,0,1,9.62,8a2,2,0,0,1,.79.47,2.64,2.64,0,0,1,.6.86,3.17,3.17,0,0,1,.25,1.32A3,3,0,0,1,11,12a2.61,2.61,0,0,1-.6.83,1.86,1.86,0,0,1-.79.43,3,3,0,0,1-.81.11Z"/><path class="cls-1" d="M180.24.38,172,11.79,163.8.38h-5.33V26.64H166V15.76l4.09,5.7h3.86L178,15.83V26.64h7.52V.38Zm-18,3.82V22.88l-3,3V1.13h4.16l-1.16,3.08Zm19.51-.07V22.89l-3,3V13.51l3-9.38L170.45,20.71l-5.22-7.28-3-9.21L172,17.68V13.06l8.63-11.93h4.09Z"/><path class="cls-1" d="M131.15,8.24A13.57,13.57,0,0,0,124,1.07a13.51,13.51,0,0,0-10.54,0,13.57,13.57,0,0,0-7.17,7.17,13.07,13.07,0,0,0-1.07,5.27,13.1,13.1,0,0,0,1.07,5.27A13.57,13.57,0,0,0,113.44,26,13.51,13.51,0,0,0,124,26a13.57,13.57,0,0,0,7.17-7.17,13.14,13.14,0,0,0,1.07-5.27A13.1,13.1,0,0,0,131.15,8.24Zm-3.45,9.07a9.94,9.94,0,0,1-2.08,3.1,9.8,9.8,0,0,1-10.57,2.14A10.41,10.41,0,0,1,112,20.64l-2.21,2a13.44,13.44,0,0,1-2.8-4.11,12.56,12.56,0,0,1-1-5,12.5,12.5,0,0,1,1-4.95,12.85,12.85,0,0,1,6.79-6.81,12.49,12.49,0,0,1,5-1,12.32,12.32,0,0,1,4.86,1,12.9,12.9,0,0,1,4,2.64,4.94,4.94,0,0,1-.41.45c-.17.17-.36.36-.54.56l-.56.6-.51.56a9.86,9.86,0,0,1,2.14,3.11,9.45,9.45,0,0,1,.79,3.86A9.57,9.57,0,0,1,127.7,17.31Z"/><path class="cls-1" d="M48.51,18.38h5.93l-3-8.59V3.6L45,20.78Zm3-6.27,1.91,5.52H49.56Z"/><path class="cls-1" d="M36.77,19.51H30V.38H22.51V26.64H36.77ZM33.2,23.08H26.26l-3,2.81V1.13h6l-3,3v19l3-2.81h6.68Z"/><path class="cls-1" d="M100.51,10.14h-6V7.5h7.88V.38H87V26.64h7.5V16.89h6ZM97,13.51H90.76V23l-3,2.85V1.13h13.88l-2.93,3H90.76v9.34l3-2.59h5.93Z"/><path class="cls-1" d="M54.1.38H48.85L39,26.64h7.62l.79-2.85H55.5l.86,2.85h7.58Zm2,22.73,1.79-2.29H45L44,23.18l-3.9,2.66L49.38,1.12h4.16L51.48,3.6,59,23.3l-2,2.59Z"/><path class="cls-1" d="M63.18,7.5h6.57V26.63h7.5V7.5h6.38V.38H63.18Zm.75-6.37H82.88L80,3.94H73.5V23.26l-3,2.59V6.79l3-2.85H66.93l-3,2.81Z"/></g></g></svg>