<?xml version="1.0" encoding="utf-8"?>
<!-- Generator: Adobe Illustrator 23.0.1, SVG Export Plug-In . SVG Version: 6.00 Build 0)  -->
<svg version="1.1" id="Layer_1" xmlns="http://www.w3.org/2000/svg" xmlns:xlink="http://www.w3.org/1999/xlink" x="0px" y="0px"
	 viewBox="0 0 23.85 23.85" style="enable-background:new 0 0 23.85 23.85;" xml:space="preserve">
<path d="M12.16,12.38c0,0.02,0.03,0.02,0.03,0c0-0.01-0.01-0.02-0.02-0.02C12.18,12.36,12.16,12.37,12.16,12.38z"/>
<path d="M14.56,7.3H9.01c-0.99,0-1.79,0.81-1.79,1.81v5.6c0,1,0.81,1.81,1.79,1.81h5.55c0.99,0,1.79-0.81,1.79-1.81v-5.6
	C16.35,8.11,15.55,7.3,14.56,7.3z M11.78,14.93c-1.65,0-2.99-1.35-2.99-3.02s1.34-3.02,2.99-3.02s2.99,1.35,2.99,3.02
	S13.43,14.93,11.78,14.93z M14.81,9.23c-0.38,0-0.69-0.31-0.69-0.69c0-0.38,0.31-0.69,0.69-0.69c0.38,0,0.68,0.31,0.68,0.69
	C15.5,8.92,15.19,9.23,14.81,9.23z"/>
<path d="M11.78,10.11c-0.99,0-1.79,0.81-1.79,1.81c0,1,0.8,1.81,1.79,1.81s1.79-0.81,1.79-1.81C13.57,10.92,12.77,10.11,11.78,10.11
	z"/>
<path d="M11.92,0C5.34,0,0,5.34,0,11.92c0,6.59,5.34,11.92,11.92,11.92s11.92-5.34,11.92-11.92C23.85,5.34,18.51,0,11.92,0z
	 M17.56,14.71c0,1.67-1.35,3.03-3,3.03H9.01c-1.65,0-3-1.36-3-3.03v-5.6c0-1.67,1.35-3.03,3-3.03h5.55c1.65,0,3,1.36,3,3.03V14.71z"
	/>
</svg>
