<svg xmlns="http://www.w3.org/2000/svg" viewBox="0 0 185.49 53.96"><title>Compound</title><g id="Layer_2" data-name="Layer 2"><g id="Layer_1-2" data-name="Layer 1"><path d="M6.24,34.84.3,49.45H2.61L4.44,45h5l1.28,4.43h2.35L7.91,34.57ZM5.08,43.29,7,37.6l1.8,5.69ZM22.76,40a4.58,4.58,0,0,1,.55,0V41.9h0a3.46,3.46,0,0,0-3.45,3.14v4.41H17.72V40.14h2.09v1.23A3.34,3.34,0,0,1,22.76,40Zm26.87,0a4.43,4.43,0,0,1,.55,0V41.9h0a3.46,3.46,0,0,0-3.45,3.14v4.41H44.59V40.14h2.09v1.23A3.34,3.34,0,0,1,49.63,40Zm135,.78a6.09,6.09,0,0,1,.88-.06v.86a4.39,4.39,0,0,0-3.37,1.26c-.31.34-.44.76-.44,1.9v5.19h-.82V40.8h.82v1.65A4.3,4.3,0,0,1,184.61,40.76Zm-5.85,2c0-1.33-.95-2.36-2.7-2.36-2.89,0-4.87,2.7-4.87,5.44a4,4,0,0,0,4.22,4.36,5,5,0,0,0,3.12-1.1V48.05h-.06a3.86,3.86,0,0,1-3.05,1.43A3.31,3.31,0,0,1,172,46.42a34.21,34.21,0,0,0,3.5-.63C177.93,45.2,178.76,44.12,178.76,42.8Zm-6.79,3v-.23h0c0-1.94,1.66-4.41,4-4.41,1.24,0,2,.65,2,1.67s-.71,1.77-2.3,2.21A25.42,25.42,0,0,1,172,45.82Zm-4-5h3v.75h-3v5.27c0,1.71.21,2.19,1.62,3v.11l-1.08.13c-.95-.46-1.33-1.14-1.33-3.2V41.54h-1.83V40.8h1.82v-3l.8-.21Zm-3.29,6.86c0,1.56-1.2,2.57-3.27,2.57a4.65,4.65,0,0,1-2.93-.91l.08-1a3.82,3.82,0,0,0,2.91,1.18c1.58,0,2.38-.69,2.38-1.81a1.62,1.62,0,0,0-.91-1.45c-.88-.47-1.9-.7-2.74-1.1a2.15,2.15,0,0,1-1.52-2.19,2.52,2.52,0,0,1,2.8-2.45,5,5,0,0,1,2.91.93l-.34.89a3.64,3.64,0,0,0-2.59-1.07c-1.35,0-2,.76-2,1.6a1.57,1.57,0,0,0,1.09,1.56c.66.3,1.75.61,2.47,1A2.3,2.3,0,0,1,164.65,47.66ZM157.2,42.8c0-1.33-.95-2.36-2.7-2.36-2.89,0-4.87,2.7-4.87,5.44a4,4,0,0,0,4.22,4.36,5,5,0,0,0,3.12-1.1V48.05h-.06a3.84,3.84,0,0,1-3,1.43,3.31,3.31,0,0,1-3.41-3.06,34.72,34.72,0,0,0,3.5-.63C156.37,45.2,157.2,44.12,157.2,42.8Zm-6.79,3v-.23h0c0-1.94,1.66-4.41,4-4.41,1.24,0,2,.65,2,1.67s-.71,1.77-2.3,2.21A25.42,25.42,0,0,1,150.41,45.82ZM148,43.66V49.9h-.82v-6c0-1.77-.74-2.53-2.26-2.53a3.6,3.6,0,0,0-2.84,1.56,2.56,2.56,0,0,0-.55,1.83v5.14h-.82V35.26l.82-.19v7.55a4.39,4.39,0,0,1,3.48-2C147,40.6,148,41.6,148,43.66Zm-8.87,4.45h.06l-.17,1.2a5.53,5.53,0,0,1-3.07.93c-2.82,0-4.59-1.81-4.59-4.74s1.77-5,4.83-5a5.22,5.22,0,0,1,2.91.8l-.29.86a4.13,4.13,0,0,0-2.63-.86c-2.55,0-4,1.71-4,4.22,0,2.21,1.24,3.94,3.73,3.94A4.18,4.18,0,0,0,139.14,48.11Zm-9.35-4.45V49.9H129v-6c0-1.77-.74-2.53-2.26-2.53a3.6,3.6,0,0,0-2.83,1.56,2.62,2.62,0,0,0-.55,1.83v5.14h-.83V40.8h.82v1.82a4.39,4.39,0,0,1,3.48-2A2.73,2.73,0,0,1,129.79,43.66Zm-12.1-3.07a4.58,4.58,0,0,0-2.93,1v1h.06a4,4,0,0,1,2.83-1.14,1.91,1.91,0,0,1,2.13,2.11v.91a13.15,13.15,0,0,0-4.36,1.05A2.64,2.64,0,0,0,113.77,48a2.14,2.14,0,0,0,2.41,2.13,5.14,5.14,0,0,0,3.6-1.66v1.66l.78-.25V43.5A2.57,2.57,0,0,0,117.69,40.59Zm2.1,6.89a4.42,4.42,0,0,1-3.39,1.86c-1.18,0-1.73-.65-1.73-1.52a2.13,2.13,0,0,1,1.58-2,12.36,12.36,0,0,1,3.54-.8Zm-8.66-12.26h1.22V49.91h-.82V36.27l-6.24,13.64h-.71l-6-13.62V49.91h-.81V35.22H99l6,13.51ZM91,40.13h2.17L89.08,49.7A23.26,23.26,0,0,1,86.87,54H84.38V53.9a17.55,17.55,0,0,0,2.85-4.47L84,40.13h2.28l2.1,6.52ZM76.62,36.71A1.21,1.21,0,0,1,75.36,38a1.27,1.27,0,0,1,0-2.54A1.21,1.21,0,0,1,76.62,36.71ZM74.3,39.9h2.09v9.55H74.3Zm-5.76-5.38a8,8,0,0,1,4.29,1.07v2.52a6.12,6.12,0,0,0-4.14-1.46,5.21,5.21,0,0,0-5.23,5.46c0,3.23,2.12,5.44,5.18,5.44a5.34,5.34,0,0,0,4.19-1.94v2.84a8.09,8.09,0,0,1-4.38,1.25c-4.27,0-7.29-3-7.29-7.63A7.39,7.39,0,0,1,68.54,34.52ZM53.6,40.13h2.66V42H53.6v4.28c0,1.75.41,2.54,1.63,3.21v.15H52.82c-.87-.42-1.31-1.16-1.31-3.1V37.39L53.6,37Zm26.89,0h2.66V42H80.49v4.28c0,1.75.41,2.54,1.63,3.21v.15H79.71c-.87-.42-1.31-1.16-1.31-3.1V37.39l2.09-.4Zm-41.84-.32a4.59,4.59,0,0,0-4.79,4.91c0,3.18,2,5.06,4.79,5.06,2.57,0,4.82-1.66,4.82-5.06A4.57,4.57,0,0,0,38.65,39.81Zm0,8.23C37,48,36,46.67,36,44.71s1-3.2,2.63-3.2,2.64,1.26,2.64,3.2C41.29,46.87,40.26,48,38.65,48ZM28.23,39.88h-4V54l2.09-.46V49.33a3.18,3.18,0,0,0,1.67.44,4.7,4.7,0,0,0,5-5.06A4.57,4.57,0,0,0,28.23,39.88Zm-.5,8.3a2,2,0,0,1-1.41-.46V41.53h1.45a3,3,0,0,1,3.06,3.26C30.83,46.88,29.63,48.18,27.73,48.18ZM16.27,36.71A1.21,1.21,0,0,1,15,38a1.27,1.27,0,0,1,0-2.54A1.21,1.21,0,0,1,16.27,36.71ZM14,39.9H16v9.55H14ZM143.46,20.21q.3.6.9,1.65c.4.7.79,1.41,1.16,2.14s.93,1.7,1.43,2.63h8.14l-4.31-8.33a10,10,0,0,0,2.87-3.38,9.34,9.34,0,0,0,1.07-4.49,9.11,9.11,0,0,0-.83-3.88,10.66,10.66,0,0,0-2.21-3.19,10.76,10.76,0,0,0-3.23-2.18,9.6,9.6,0,0,0-3.9-.81H136V26.63h7.5Zm1.33-6.13a4,4,0,0,0,1.05-.15,2.62,2.62,0,0,0,1-.54,3.09,3.09,0,0,0,.79-1.05,4,4,0,0,0,.31-1.68,4.21,4.21,0,0,0-.24-1.5,2.78,2.78,0,0,0-.66-1.05l2.1-2.06a5.49,5.49,0,0,0-1.93-1.33,7.57,7.57,0,0,0-3.13-.58h-4.39V23.3l-3,2.59V1.13h7.84a8.89,8.89,0,0,1,3.62.75,9.82,9.82,0,0,1,3,2.06l-2,2.1a10.9,10.9,0,0,1,1.37,2.18,5.75,5.75,0,0,1,.51,2.48,6.37,6.37,0,0,1-1.52,4.24,6.13,6.13,0,0,1-1.63,1.37,7,7,0,0,1-1.95.77l3.64,6.53-2.21,2.29-3.49-6.34,2-2.48h-6.08l2.85-3Zm-1.32-.76V7.88h1.31a2.73,2.73,0,0,1,.81.13,2,2,0,0,1,.79.47,2.64,2.64,0,0,1,.6.86,3.18,3.18,0,0,1,.24,1.32A3,3,0,0,1,147,12a2.61,2.61,0,0,1-.6.83,1.86,1.86,0,0,1-.79.43,3,3,0,0,1-.81.11ZM123.55,8.7l2-2.21a9.35,9.35,0,0,0-3.06-2,10,10,0,0,0-3.77-.71,9.57,9.57,0,0,0-3.81.77,9.94,9.94,0,0,0-3.1,2.08A9.79,9.79,0,0,0,109,13.51a9.76,9.76,0,0,0,.79,4A9,9,0,0,0,112,20.6c.15-.12.33-.29.54-.49l.66-.6.62-.56c.19-.17.33-.31.43-.41a6.92,6.92,0,0,0,2,1.24,6.5,6.5,0,0,0,2.44.45,6.68,6.68,0,0,0,2.63-.53,6.81,6.81,0,0,0,2.16-1.44,6.54,6.54,0,0,0,1.44-2.16,6.68,6.68,0,0,0,.53-2.63,6.59,6.59,0,0,0-.53-2.59A7.45,7.45,0,0,0,123.55,8.7Zm.68,7.1a6,6,0,0,1-1.29,1.91A6.08,6.08,0,0,1,121,19a6,6,0,0,1-4.66,0,6.06,6.06,0,0,1-3.2-3.2,6,6,0,0,1,1.29-6.57,6.08,6.08,0,0,1,1.91-1.29,6,6,0,0,1,4.66,0,6,6,0,0,1,1.91,1.29,6.08,6.08,0,0,1,1.29,1.91,6,6,0,0,1,0,4.66ZM18.76,10.43a9.11,9.11,0,0,0-.83-3.88,10.66,10.66,0,0,0-2.21-3.19,10.76,10.76,0,0,0-3.23-2.18A9.6,9.6,0,0,0,8.59.37H0V26.63H7.5v-6A16.25,16.25,0,0,0,12,20a9.59,9.59,0,0,0,3.55-1.84A8.56,8.56,0,0,0,17.92,15,11.4,11.4,0,0,0,18.76,10.43ZM14.61,8.22a5.75,5.75,0,0,1,.51,2.48,6.88,6.88,0,0,1-.43,2.46,6,6,0,0,1-1.29,2,6.05,6.05,0,0,1-2.18,1.39,9,9,0,0,1-3.08.49H3.9l2.85-3H8.81a4,4,0,0,0,1-.15,2.62,2.62,0,0,0,1-.54,3.09,3.09,0,0,0,.79-1.05A3.85,3.85,0,0,0,12,10.66a4.21,4.21,0,0,0-.24-1.5,2.78,2.78,0,0,0-.66-1.05l2.1-2.06a5.49,5.49,0,0,0-1.93-1.33,7.57,7.57,0,0,0-3.13-.58H3.75V23.5l-3,2.4V1.13H8.59a8.89,8.89,0,0,1,3.62.75,9.82,9.82,0,0,1,3,2.06l-2,2.1A10.9,10.9,0,0,1,14.61,8.22ZM7.5,13.32V7.88H8.81A2.73,2.73,0,0,1,9.62,8a2,2,0,0,1,.79.47,2.64,2.64,0,0,1,.6.86,3.17,3.17,0,0,1,.25,1.32A3,3,0,0,1,11,12a2.61,2.61,0,0,1-.6.83,1.86,1.86,0,0,1-.79.43,3,3,0,0,1-.81.11ZM180.24.38,172,11.79,163.8.38h-5.33V26.64H166V15.76l4.09,5.7h3.86L178,15.83V26.64h7.52V.38Zm-18,3.82V22.88l-3,3V1.13h4.16l-1.16,3.08Zm19.51-.07V22.89l-3,3V13.51l3-9.38L170.45,20.71l-5.22-7.28-3-9.21L172,17.68V13.06l8.63-11.93h4.09ZM131.15,8.24A13.57,13.57,0,0,0,124,1.07a13.51,13.51,0,0,0-10.54,0,13.57,13.57,0,0,0-7.17,7.17,13.07,13.07,0,0,0-1.07,5.27,13.1,13.1,0,0,0,1.07,5.27A13.57,13.57,0,0,0,113.44,26,13.51,13.51,0,0,0,124,26a13.57,13.57,0,0,0,7.17-7.17,13.14,13.14,0,0,0,1.07-5.27A13.1,13.1,0,0,0,131.15,8.24Zm-3.45,9.07a9.94,9.94,0,0,1-2.08,3.1,9.8,9.8,0,0,1-10.57,2.14A10.41,10.41,0,0,1,112,20.64l-2.21,2a13.44,13.44,0,0,1-2.8-4.11,12.56,12.56,0,0,1-1-5,12.5,12.5,0,0,1,1-4.95,12.85,12.85,0,0,1,6.79-6.81,12.49,12.49,0,0,1,5-1,12.32,12.32,0,0,1,4.86,1,12.9,12.9,0,0,1,4,2.64,4.94,4.94,0,0,1-.41.45c-.17.17-.36.36-.54.56l-.56.6-.51.56a9.86,9.86,0,0,1,2.14,3.11,9.45,9.45,0,0,1,.79,3.86A9.57,9.57,0,0,1,127.7,17.31ZM48.51,18.38h5.93l-3-8.59V3.6L45,20.78Zm3-6.27,1.91,5.52H49.56Zm-14.7,7.4H30V.38H22.51V26.64H36.77ZM33.2,23.08H26.26l-3,2.81V1.13h6l-3,3v19l3-2.81h6.68Zm67.31-12.94h-6V7.5h7.88V.38H87V26.64h7.5V16.89h6ZM97,13.51H90.76V23l-3,2.85V1.13h13.88l-2.93,3H90.76v9.34l3-2.59h5.93ZM54.1.38H48.85L39,26.64h7.62l.79-2.85H55.5l.86,2.85h7.58Zm2,22.73,1.79-2.29H45L44,23.18l-3.9,2.66L49.38,1.12h4.16L51.48,3.6,59,23.3l-2,2.59ZM63.18,7.5h6.57V26.63h7.5V7.5h6.38V.38H63.18Zm.75-6.37H82.88L80,3.94H73.5V23.26l-3,2.59V6.79l3-2.85H66.93l-3,2.81Z"/></g></g></svg>