<?xml version="1.0" encoding="utf-8"?>
<!-- Generator: Adobe Illustrator 23.0.1, SVG Export Plug-In . SVG Version: 6.00 Build 0)  -->
<svg version="1.1" id="Layer_1" xmlns="http://www.w3.org/2000/svg" xmlns:xlink="http://www.w3.org/1999/xlink" x="0px" y="0px"
	 viewBox="0 0 15.34 15.34" style="enable-background:new 0 0 15.34 15.34;" xml:space="preserve">
<path d="M7.67,0C3.43,0,0,3.43,0,7.67s3.43,7.67,7.67,7.67s7.67-3.43,7.67-7.67S11.91,0,7.67,0z M10.75,6.01c0,0.07,0,0.14,0,0.2
	c0,2.09-1.6,4.5-4.52,4.5c-0.9,0-1.73-0.26-2.44-0.71c0.12,0.01,0.25,0.02,0.38,0.02c0.74,0,1.43-0.25,1.97-0.68
	c-0.69-0.01-1.28-0.47-1.48-1.1c0.1,0.02,0.2,0.03,0.3,0.03c0.14,0,0.28-0.02,0.42-0.05C4.66,8.08,4.11,7.44,4.11,6.68
	c0-0.01,0-0.01,0-0.02c0.21,0.12,0.46,0.19,0.72,0.2C4.4,6.57,4.12,6.09,4.12,5.54c0-0.29,0.08-0.56,0.22-0.79
	C5.12,5.7,6.29,6.33,7.61,6.4C7.59,6.28,7.57,6.16,7.57,6.04c0-0.87,0.71-1.58,1.59-1.58c0.46,0,0.87,0.19,1.16,0.5
	c0.36-0.07,0.7-0.2,1.01-0.38c-0.12,0.37-0.37,0.68-0.7,0.87c0.32-0.04,0.63-0.12,0.91-0.25C11.33,5.51,11.06,5.79,10.75,6.01z"/>
</svg>
